<svg xmlns="http://www.w3.org/2000/svg" viewBox="0 0 325.85 73.55"><defs><style>.about-cls{fill:none;stroke:#000;stroke-miterlimit:10;stroke-width: 1px;}</style></defs><g id="Layer_2" data-name="Layer 2"><g id="Layer_1-2" data-name="Layer 1"><path id="path1" class="about-cls" d="M116,73.05l-9.75-4.36-.73,3.07H85.39V.5h21.28v21c4.28-1.18,8-2.81,11.81-3.14,10.66-.91,19,3.67,24,13,5.2,9.72,4.89,19.85-.6,29.59-3.75,6.64-10.05,9.83-16.91,12.2Zm-9.3-27.49c0,6.11,3.39,10.29,8.38,10.42s8.91-4.44,8.89-10.53c0-5.88-3.6-10.27-8.51-10.39C110.21,34.93,106.62,39.23,106.65,45.56Z"/><path id="path2" class="about-cls" d="M236,73.05C222.14,69.19,218.17,59,218.39,46c.14-8.79,0-17.58,0-26.62h21.66c0,5.56-.07,11.14,0,16.71.07,4.15.19,8.32.6,12.45.36,3.54,2.37,5.84,6.17,6a6.44,6.44,0,0,0,6.94-5.26,43.86,43.86,0,0,0,1-9.38c.14-6.65.05-13.31.05-20.35h21.31V71.75H256.29l-.76-3.84L245,73.05Z"/><path id="path3" class="about-cls" d="M175,73.05c-5.76-3-12.62-5-17.08-9.37-12.54-12.3-9.89-30.94,4.85-40.55,12.2-8,31.79-6.2,41.16,3.7,14.72,15.54,7.39,39.61-13.68,45-1.43.36-2.84.81-4.25,1.22Zm14.52-27.56c0-6-3.43-10.26-8.4-10.41s-9,4.36-9,10.43c0,5.82,3.66,10.31,8.48,10.48C185.67,56.16,189.46,51.68,189.47,45.49Z"/><path id="path4" class="about-cls" d="M306,73.05a22.05,22.05,0,0,0-2.6-1.14c-9.14-2.68-13.93-8.59-14.31-18.12-.21-5.12,0-10.25,0-15.55l-6.92-.63V22.27l6.67-.47V7.38h21.7V21.79l10.6.5V37.78H310.82c0,5.19-.52,10,.13,14.67.76,5.49,5.21,3.75,9.23,3.18,1.62,4.63,3.25,9.25,5,14.38l-7.27,3Z"/><path id="path5" class="about-cls" d="M81.55,72c-7.46,0-14.41.17-21.33-.17-1.14-.05-2.59-2.12-3.19-3.55-3.41-8.15-3.34-8.18-12.31-8.18a40.2,40.2,0,0,1-5.49,0c-7.67-1.05-13.61.35-15.1,9.4-.17,1-2.23,2.39-3.46,2.44-6.48.24-13,.11-20,.11.51-1.56.8-2.78,1.3-3.91,8.69-20,17.49-39.92,26.06-59.94,1.33-3.12,3-4.22,6.35-4,5.79.37,12.9-1.71,17.06,1S56.83,15,59.17,20.25Q69.46,43.53,79.61,66.86C80.26,68.34,80.77,69.9,81.55,72Zm-34-28.23c-2.28-5.88-4.25-11-6.72-17.31L34.24,43.73Z"/><path id="path6" class="about-cls" d="M106.65,45.56c0-6.33,3.56-10.63,8.76-10.5,4.91.12,8.5,4.51,8.51,10.39,0,6.09-3.84,10.66-8.89,10.53S106.68,51.67,106.65,45.56Z"/><path id="path7" class="about-cls" d="M189.47,45.49c0,6.19-3.8,10.67-8.89,10.5-4.82-.17-8.46-4.66-8.48-10.48,0-6.07,3.86-10.59,9-10.43S189.47,39.49,189.47,45.49Z"/><path id="path8" class="about-cls" d="M47.53,43.73H34.24l6.57-17.31C43.28,32.77,45.25,37.85,47.53,43.73Z"/></g></g></svg>
