<svg class="home-background-image__left" xmlns="http://www.w3.org/2000/svg" viewBox="0 0 548.18 553.56"><defs><style></style></defs><g id="Layer_2" data-name="Layer 2"><g id="Layer_1-2" data-name="Layer 1"><path id="path-1" class="cls-1" d="M260.87,553.06H.52c.12-2.38.33-4.75.33-7.12q0-264.57.06-529.16c0-5.45.64-10.91,1-16.28H460.7c1.64,10.77,3.31,21.21,4.79,31.69,1.86,13.15,3.85,26.3,5.25,39.5,1.45,13.55,2.19,27.17,3.34,40.75,1.68,19.74,4,39.43,5.07,59.2,1.46,26.45,1.7,53,3.09,79.44.86,16.6,2.84,33.15,4.36,49.73q2.63,28.56,5.34,57.12a22.08,22.08,0,0,0,.33,2.83c3.25,14.62,7.45,29.1,9.55,43.88,2.75,19.42,4.35,39,5.49,58.63.84,14.56,0,29.22.32,43.82a18.59,18.59,0,0,0,3.45,9.48c2.68,3.85,6.18,7.16,9.53,10.51,8.73,8.71,17.56,17.32,26.35,26H305.69c-.63-11.49-.94-23-2-34.44-1.22-13.47,3.75-25.84,5.9-38.71s8.37-25.14,5.1-39.83c3.73,1.55,6.72,3,9.83,4.06,15.21,5.37,31,6.75,46.87,5.26,11.37-1.06,23.23-1.81,32.31-10.2,5-4.67,10.46-9.34,14.06-15.06,5.83-9.25,6.7-20.21,7.94-30.94,1.39-12.09,1.4-24.74,5.24-36.05a705.36,705.36,0,0,1,26.52-65.66c8.43-18.42,12.66-37.45,9.77-57.18-2.1-14.38-7.22-28.37-11.62-42.35-.79-2.51-4.45-5.45-7.09-5.78-6.81-.84-13.79-.39-20.7-.33-3.28,0-6.55.33-10.71.56,4.73-6.32,4.73-6.3,11-6.25,3.5,0,7,.2,10.48-.08,1.69-.13,3.31-1.15,5-1.76-.87-1.79-1.3-4.6-2.67-5.17-4.48-1.87-5.79-5.32-6.45-9.53a15,15,0,0,0-1.21-3.1l-10.77,2.39c2.39-4.51,3.69-8.76,6.39-11.75a309.63,309.63,0,0,1,22.34-22.62c6.95-6.27,10.53-12.21,8.29-22.57-4.79-22.22-7.72-44.85-11.43-67.3-2.22-13.44-18.26-25.27-31.36-23.08-16.52,2.75-33.34,3.82-50.06,5.19a17.17,17.17,0,0,0-14,8.47c-4.28,6.81-8.47,13.71-12.05,20.9q-12,24.15-23.35,48.62c-6,13-11.68,26.14-17.47,39.23-1.38,3.13-.76,5.24,3.11,5.51,1.27.09,2.51.4,3.78.51,12.14,1.07,24.31,1.84,36.41,3.26,8.47,1,16.86,2.73,25.23,4.41,4.95,1,8.85,5.31,8.54,8.75-.33,3.79-5.1,7.38-10.2,7.66-1,.05-1.91,0-2.86,0-13.66,0-26.4-4.63-39.45-7.66-9.56-2.22-19-3.51-28.3.91-4.2,2-7.47,4.8-8.71,9.44-1.58,5.87,3.06,11,8.94,9.56,9.27-2.31,18.34-5.44,27.65-7.52,10.49-2.34,20.79-1.8,29.48,5.67,2.37,2,4.18,4.74,6.73,7.7a38.4,38.4,0,0,1-4.69,1.58c-4.61.76-5.92,3.13-5.37,7.88,1.11,9.56-2.14,12.63-11.85,12.39-10.81-.26-10.82-.26-13.58-11-.77-3-3-4.64-5.59-3.36a74.32,74.32,0,0,0-11.35,7.35c-1.79,1.34-1.61,3,.87,3.79,1.66.5,3.39.77,5,1.42a45,45,0,0,1,8,3.83c1,.63,1.54,2.76,1.29,4-.18.85-2.05,1.87-3.21,1.93-10.29.56-20.6,1.2-30.9,1.24-5.78,0-10.9,1.12-15.66,4.45-1.21.85-3.63,1.47-4.65.83-3.19-2-4.31.12-5.6,2.15-4.52,7.06-8.89,14.22-13.51,21.22-10.17,15.39-16.13,32.3-19,50.47-.52,3.27-2,7.17-4.32,9.23a37.23,37.23,0,0,0-11.61,17.5c-3.75,12.24-11.9,23.77-6.34,37.58a1.83,1.83,0,0,1,0,.47c.71,12.14,6.91,21.83,15.71,29.08,10.65,8.76,22.64,15.9,34,23.82,4.57,3.18,10.51,4.71,12.81,10.76.24.63,2.78.83,4.08.51,3.58-.89,6.16.09,8.21,3.4-.89.37-1.66,1-2.3.89-4.88-.84-9.93-1.26-14.55-2.91-6.13-2.19-11.83-5.58-17.87-8.1-11.2-4.67-22.48-9.16-33.78-13.57-5.33-2.08-10.68-4.46-16.25-5.48-4.61-.85-7.42,2.1-6.73,6.83,1,6.81,3,13.48,4.63,20.2.69,2.86.7,6.26,2.34,8.44,5.5,7.31,11.34,14.41,17.52,21.17,8.89,9.74,14.49,20.74,16.25,33.95,1.34,10.05,4.15,19.8,11,27.85,1,1.17,1.39,2.85,2,4.21l-4.5.21c.23,1.3.15,2.76.74,3.87a61.79,61.79,0,0,0,5,8.06C251.1,540.68,256,546.84,260.87,553.06ZM474.46,412.89c-7.88-2.92-8.27-2.89-7.58,5.49a156.7,156.7,0,0,0,3.62,23.83c1.62,6.65,4.58,13,7.1,19.4,1,2.64,3.36,4.25,5.34,1.51,3.18-4.38,6.81-8.95,4.49-15.13-2-5.29-4.05-10.56-5.74-15.94a122.41,122.41,0,0,1-2.87-12.29c-.63-3.13-1-6.31-1.7-10.81C475.66,411.1,475.05,412,474.46,412.89ZM464,135.53c-6.05,5.08-11.72,9.84-17.38,14.61l.86,1.4c1.54-.52,3.07-1.09,4.63-1.54,1.82-.53,3.64-1,5.49-1.4C463.83,147.33,466.18,143.21,464,135.53Z"/><path id="path-2" class="cls-1" d="M260.87,553.06c-4.85-6.22-9.77-12.38-14.5-18.67a61.79,61.79,0,0,1-5-8.06c-.59-1.11-.51-2.57-.74-3.87l4.5-.21c-.64-1.36-1-3-2-4.21-6.84-8-9.65-17.8-11-27.85-1.76-13.21-7.36-24.21-16.25-33.95-6.18-6.76-12-13.86-17.52-21.17-1.64-2.18-1.65-5.58-2.34-8.44-1.62-6.72-3.64-13.39-4.63-20.2-.69-4.73,2.12-7.68,6.73-6.83,5.57,1,10.92,3.4,16.25,5.48,11.3,4.41,22.58,8.9,33.78,13.57,6,2.52,11.74,5.91,17.87,8.1,4.62,1.65,9.67,2.07,14.55,2.91.64.11,1.41-.52,2.3-.89-2.05-3.31-4.63-4.29-8.21-3.4-1.3.32-3.84.12-4.08-.51-2.3-6.05-8.24-7.58-12.81-10.76-11.36-7.92-23.35-15.06-34-23.82-8.8-7.25-15-16.94-15.71-29.08a1.83,1.83,0,0,0,0-.47c-5.56-13.81,2.59-25.34,6.34-37.58A37.23,37.23,0,0,1,226,305.65c2.36-2.06,3.8-6,4.32-9.23,2.87-18.17,8.83-35.08,19-50.47,4.62-7,9-14.16,13.51-21.22,1.29-2,2.41-4.14,5.6-2.15,1,.64,3.44,0,4.65-.83,4.76-3.33,9.88-4.43,15.66-4.45,10.3,0,20.61-.68,30.9-1.24,1.16-.06,3-1.08,3.21-1.93.25-1.24-.33-3.37-1.29-4a45,45,0,0,0-8-3.83c-1.59-.65-3.32-.92-5-1.42-2.48-.74-2.66-2.45-.87-3.79a74.32,74.32,0,0,1,11.35-7.35c2.62-1.28,4.82.34,5.59,3.36,2.76,10.71,2.77,10.71,13.58,11,9.71.24,13-2.83,11.85-12.39-.55-4.75.76-7.12,5.37-7.88a38.4,38.4,0,0,0,4.69-1.58c-2.55-3-4.36-5.66-6.73-7.7-8.69-7.47-19-8-29.48-5.67-9.31,2.08-18.38,5.21-27.65,7.52-5.88,1.46-10.52-3.69-8.94-9.56,1.24-4.64,4.51-7.45,8.71-9.44,9.32-4.42,18.74-3.13,28.3-.91,13,3,25.79,7.71,39.45,7.66.95,0,1.9,0,2.86,0,5.1-.28,9.87-3.87,10.2-7.66.31-3.44-3.59-7.76-8.54-8.75-8.37-1.68-16.76-3.41-25.23-4.41-12.1-1.42-24.27-2.19-36.41-3.26-1.27-.11-2.51-.42-3.78-.51-3.87-.27-4.49-2.38-3.11-5.51,5.79-13.09,11.43-26.25,17.47-39.23q11.37-24.45,23.35-48.62c3.58-7.19,7.77-14.09,12.05-20.9a17.17,17.17,0,0,1,14-8.47c16.72-1.37,33.54-2.44,50.06-5.19,13.1-2.19,29.14,9.64,31.36,23.08,3.71,22.45,6.64,45.08,11.43,67.3,2.24,10.36-1.34,16.3-8.29,22.57a309.63,309.63,0,0,0-22.34,22.62c-2.7,3-4,7.24-6.39,11.75l10.77-2.39a15,15,0,0,1,1.21,3.1c.66,4.21,2,7.66,6.45,9.53,1.37.57,1.8,3.38,2.67,5.17-1.66.61-3.28,1.63-5,1.76-3.47.28-7,.11-10.48.08-6.24,0-6.24-.07-11,6.25,4.16-.23,7.43-.53,10.71-.56,6.91-.06,13.89-.51,20.7.33,2.64.33,6.3,3.27,7.09,5.78,4.4,14,9.52,28,11.62,42.35,2.89,19.73-1.34,38.76-9.77,57.18A705.36,705.36,0,0,0,431,357.15c-3.84,11.31-3.85,24-5.24,36.05-1.24,10.73-2.11,21.69-7.94,30.94-3.6,5.72-9,10.39-14.06,15.06-9.08,8.39-20.94,9.14-32.31,10.2-15.88,1.49-31.66.11-46.87-5.26-3.11-1.09-6.1-2.51-9.83-4.06,3.27,14.69-2.95,27-5.1,39.83s-7.12,25.24-5.9,38.71c1,11.44,1.35,23,2,34.44ZM341.46,351l-.24,1.15c4.68,2,9.26,4.44,14.12,5.94a8.46,8.46,0,0,0,6.66-1.35c3-2.25,5.8-2.46,9.3-2.19,11.63.89,23.22,3.41,35,.87a28.72,28.72,0,0,0,17.56-11.22c3.55-4.78,2.17-8-3.71-7.85a115,115,0,0,0-18.78,2.51c-9.36,1.85-18.6,4.35-28,6.25C362.78,347.21,352.11,349,341.46,351Zm25.71-59.44,1.73.45c5.62-5.93,5.62-5.93,1.52-12.93Q368.79,285.27,367.17,291.51Zm23.93,78.11v1.44c5.44,2.5,10.85,3.5,16.16-1.44Z"/><path id="path-3" class="cls-1" d="M474.46,412.89c.59-.87,1.2-1.79,2.66-3.94.7,4.5,1.07,7.68,1.7,10.81a122.41,122.41,0,0,0,2.87,12.29c1.69,5.38,3.76,10.65,5.74,15.94,2.32,6.18-1.31,10.75-4.49,15.13-2,2.74-4.31,1.13-5.34-1.51-2.52-6.42-5.48-12.75-7.1-19.4a156.7,156.7,0,0,1-3.62-23.83C466.19,410,466.58,410,474.46,412.89Z"/><path id="path-4" class="cls-1" d="M464,135.53c2.17,7.68-.18,11.8-6.4,13.07-1.85.38-3.67.87-5.49,1.4-1.56.45-3.09,1-4.63,1.54l-.86-1.4C452.29,145.37,458,140.61,464,135.53Z"/><path id="path-5" class="cls-1" d="M341.46,351c10.65-1.95,21.32-3.74,31.92-5.89,9.36-1.9,18.6-4.4,28-6.25a115,115,0,0,1,18.78-2.51c5.88-.18,7.26,3.07,3.71,7.85a28.72,28.72,0,0,1-17.56,11.22c-11.75,2.54-23.34,0-35-.87-3.5-.27-6.34-.06-9.3,2.19a8.46,8.46,0,0,1-6.66,1.35c-4.86-1.5-9.44-3.9-14.12-5.94Z"/><path id="path-6" class="cls-1" d="M367.17,291.51q1.62-6.24,3.25-12.48c4.1,7,4.1,7-1.52,12.93Z"/><path id="path-7" class="cls-1" d="M391.1,369.62h16.16c-5.31,4.94-10.72,3.94-16.16,1.44Z"/></g></g></svg>
