<svg class="home-background-image" xmlns="http://www.w3.org/2000/svg" viewBox="0 0 453.09 640.07"><defs><style>.cls-1{fill:none;}.cls-2{fill:none;stroke:#c6435b;stroke-linecap:round;stroke-linejoin:round;stroke-width:0.5px;}</style></defs><g id="Layer_2" data-name="Layer 2"><g id="Layer_1-2" data-name="Layer 1"><path d="M.07,598v-5c1.22-2.43,2.77-4.75,3.58-7.31.9-2.84-.35-4.43-3.58-3.69V10l2-10h318c2,12,4.41,23.86,5.95,35.87,1.61,12.54,2.27,25.19,3.59,37.76,1.92,18.36,4,36.67,3.8,55.22-.16,13.11.8,26.25,1.73,39.35.78,10.94,2.2,21.83,3.45,32.73.62,5.44,1.59,10.85,2.2,16.3.42,3.73-.26,7.76.93,11.19,1.33,3.81-.36,7.37.62,11.08,3,11.36,5.85,22.78,7.77,34.39.81,4.89,1,9.88,1.45,14.83.48,5.75,1.09,11.5,1.25,17.27.27,9.77,1.07,19.64-.05,29.27-.47,4,.31,6.25,2.59,8.45C366,354,376.82,364,387.45,374.26c1.51,1.46,5.81,2.32,2.41,6-.11.12.24,1,.54,1.14,4.37,1.88,8.64,4.25,13.21,5.28,2.44.56,4.48.85,5.72,3,2.45,4.32,4.75,8.73,7.2,13,1.72,3,3.66,5.94,5.34,9,.41.74.21,1.82.28,2.74-.51-.58-1-1.17-1.55-1.75s-1-1.1-1.54-1.65c-.06.91-.46,2-.15,2.72,2.16,5.35,4.48,10.64,6.7,16,2.37,5.66,4.72,11.33,7,17a6.11,6.11,0,0,1,.15,2.83c-.44,4-1.05,7.88-1.41,11.84a9.55,9.55,0,0,0,.75,3c.36-.86.69-1.74,1.11-2.58a22.48,22.48,0,0,1,1.18-1.92,17.66,17.66,0,0,1,.14,2.4c-.36,4.81-.73,9.61-1.17,14.41-.17,1.87-.54,3.74-.82,5.6q-.69-2.9-1.37-5.79t-1.25-5.54c-.69,1.82-1.36,3.66-2.06,5.48a15.14,15.14,0,0,1-.82,1.54,5.7,5.7,0,0,1-1-1.51c-1.12-4.41-2.14-8.85-3.26-13.26-.13-.54-.67-1-1-1.47a5.71,5.71,0,0,0-.38,1.85c.19,1.48.74,2.92.85,4.4.29,4.23,1,8.54.49,12.69s.17,7.47,3.2,10.33,5.17,5.59,5.61,10.36c.33,3.62,4.25,6.89,6.48,10.38a10.07,10.07,0,0,1,1.23,3.25c.13.57-.27,1.25-.43,1.88a6.75,6.75,0,0,1-1.88-1c-3.32-3.48-6.53-7.08-9.89-10.52-1.16-1.2-2.33-2.24-2.68.91-.16,1.38-2.36,2.64-3.84,3.64-.18.12-1.85-1.59-2.52-2.65s-.9-2.49-1.52-3.65c-1.5-2.84-3-5.67-4.77-8.37-.28-.43-1.61-.19-2.45-.26,0,3.43-.46,6.92,0,10.29s2.19,6.3,2.64,9.54c1.3,9.52,1.73,19.18,3.47,28.6,1.91,10.4,6.68,19.77,13.17,28.17.41.52,1.32.66,2,1a14.08,14.08,0,0,0,.62-2.33c.46-5.47.75-11,1.4-16.4.1-.88,1.67-1.59,2.57-2.37a10.21,10.21,0,0,1,1.13,2.85c.3,4,.44,8,4.2,10.64.34.23.38,1.14.29,1.69-1,6.13,1.18,10.83,6.28,14.29a3,3,0,0,1,1.17,1.47c1.68,5.76,3.63,11.48,4.76,17.35.47,2.46,0,6-1.5,7.78-6.16,7.5-6.69,17-10,25.53-.88,2.23-1.57,4.53-2.34,6.8h-56c-1.55-7.8-3-15.62-4.69-23.39-.59-2.73-1-6-2.72-7.88-4.18-4.44-4.9-10.17-7-15.39-.21-.53.08-1.25.13-1.88,5.5.71,2.4-3.2,1.84-4.33-2-4.1-5-7.73-6.85-11.88-2.56-5.77-7-8.12-12.81-8.87-.49-.07-1-.64-1.37-1-3.29-3-6.44-6.24-9.88-9.1-2.14-1.77-2.54.06-2.43,1.77.42,6.4,1.25,12.8,1.29,19.21,0,6,.48,12.08-2.62,17.68a23.19,23.19,0,0,0-2,6.13c-2.89,12.73-10.88,22.18-19.85,31a7.14,7.14,0,0,1-1.61.9,14.6,14.6,0,0,1,1.08-1.94c4.21-5.49,8.54-10.9,12.65-16.47,2.42-3.27,1.65-5-2.19-6.43-.78-.3-1.83-1.49-1.76-2.15.46-4.13.63-8.42,2-12.29a48.82,48.82,0,0,0,.84-28.85c-1.06-4.05-3.26-7.8-4.81-11.75-1.28-3.28-1.92-6.89-3.62-9.92-3-5.4-7.56-9.24-12.88-12.72-6.07-4-9.85-10.93-16.37-14.74a26.09,26.09,0,0,1-4-3.56c.21,1.75.54,3.49.6,5.24s-.15,3.68-.24,5.51c-.87-1.64-2.53-3.31-2.46-4.92.25-6-6.38-5.74-8.24-9.67a2.51,2.51,0,0,0-1.3.44c-3.84,3.86-4.49,1.26-4.84-2.3a13.81,13.81,0,0,0-1-2.8c-1.25-3.71-3.29-7.41-3.43-11.17-.08-2.34.12-2.43-2.15-2.69-4.42-.5-6.17.43-7.17,4.6-2.52,10.49,1.34,20.37,2.93,30.46.12.73,1.4,1.26,2.09,1.94s1.89,1.75,1.74,2c-1,1.68-2.2,2.73-4,.66a35,35,0,0,0-4.38-4,6.39,6.39,0,0,0-2.14-.66,15,15,0,0,0,.06,1.9c1.41,8.78,2.79,17.57,4.27,26.34a10.49,10.49,0,0,1-2.87,9.29c-3.09-5.66-4.15-11.89-5.71-18.06-.82-3.27-4.44-5.9-7-8.63-.41-.43-2.72.13-2.72.23,0,3.82-1.23,8.68.64,11.24,4.13,5.65,9.84,10.14,14.9,15.1,2.33,7,5.1,13.94,6.87,21.1,2.07,8.34,1.61,16.66-3.41,24.16-1.27.27-3.33-2.31-3.72,1a30.44,30.44,0,0,0,0,3.17l2.79-3.18,1-1.11c-2.69,6.06-5.79,12-7.87,18.24-.9,2.72.29,6.14.53,9.24,4.29-.49,3.4,2.88,3.91,5.22h-212c-.45-3-1-6-1.32-9-.14-1.27-.45-3,.2-3.78,3.13-3.69,2.18-8,2.27-12.13.07-3.54-.08-7.09-.16-10.64,0-1.33.21-2.83-.32-3.93s-2-2.61-2.87-2.47c-2.89.5-2.29-.77-1.75-2.47,2.6-8.11,1.29-10-7.09-10.59a22.09,22.09,0,0,1-2.41-.42c.5-.49,1.3-.91,1.45-1.49a25.73,25.73,0,0,0,.74-5.09c0-.71-.59-1.45-.91-2.18-.45.57-.91,1.13-1.35,1.71-.9,1.18-1.53,2.82-2.72,3.48-4.6,2.58-6.94,6.75-9,11.31-.63,1.38-2.69,3.37-3.59,3.14C6.2,594.4,3.34,596.8.07,598ZM425.34,449.65l1,5.42,1.25-.34-2.38-5c2-3.86.13-6.93-2.07-9.91-.21-.28-.73-.35-1.11-.51-.05.3-.23.65-.14.9C423,443.39,424.19,446.52,425.34,449.65ZM226.06,129.93c-1.33-.39-2.8-1.35-3.94-1.05a24.08,24.08,0,0,0-6.5,3,24.6,24.6,0,0,0-3.78,3.66,24,24,0,0,0,3.63,1.72c1.74.51,3.65.51,5.34,1.15a9.77,9.77,0,0,1,3.4,2.52,2.24,2.24,0,0,1,.2,2.16c-.33.44-1.41.41-2.16.43-4.54.1-9.07.1-13.6.26-1.79.07-3.65.95-5.34.65-5.56-1-10.48-.09-14.76,3.76a1.73,1.73,0,0,1-1.67.09c-2.33-2.65-3.45-.4-4.49,1.17-5.28,8-10.75,15.92-15.58,24.2-2.13,3.63-2.32,8.39-4.42,12.05-3.53,6.17,0,14.7-7.86,19.71-3.5,2.23-5.11,7.72-7.07,12-1.51,3.26-1.84,7.06-3.39,10.29-1.73,3.58-2.2,6.87-.45,10.47a5.12,5.12,0,0,1,.78,2.84c-1.12,5.66,3.46,8.78,5.54,13,2.81,5.77,8.57,8.18,13.31,11.59a220.28,220.28,0,0,0,22.13,14c2.9,1.6,3.12,2.87,2,5.33v-.05c-1.89-1-3.71-2.11-5.68-2.89-9.54-3.8-19.12-7.47-28.67-11.24-4.28-1.68-8.41-3.92-12.82-5-2.25-.56-5.68.09-7.26,1.58-1.16,1.09-.59,4.54-.07,6.77.89,3.84,2.41,7.53,3.53,11.32.36,1.2-.15,2.9.53,3.72,3.54,4.34,7.25,8.56,11.08,12.66,5.1,5.47,10.51,11,11.87,18.53,1.67,9.21,2.88,18.38,9.72,25.56.38.4.37,1.17.53,1.77l-1.66-.53-2-.62c0,.65-.33,1.47,0,1.93a121.74,121.74,0,0,0,6.73,10.32c2,2.61,4.79,4.62,6.83,7.21,3.23,4.1,6.12,8.47,9.15,12.72v.08c3.13,2.54,6.21,4.51,7,9.5.58,3.86,4.9,7,6.71,10.87,3.35,7.19,6.31,14.59,9,22.05,3.84,10.61,7.89,21.19,10.74,32.08,2.38,9.11,3.21,18.64,4.64,28a10.8,10.8,0,0,1-.41,3.44,4.3,4.3,0,0,1-.72,1.22,8.51,8.51,0,0,1-1.33-1c-1-1.19-2-2.45-3-3.68.25,1.83.38,3.69.8,5.48a8.24,8.24,0,0,0,1.45,2.59c3.53,5.14,6.67,10.63,10.73,15.31,4.78,5.5,10.34,10.32,15.62,15.38a5.85,5.85,0,0,0,2.07.75,11.19,11.19,0,0,0,0-1.92c-.15-1-.49-1.93-.66-2.92-1.71-9.73-2.52-19.45.74-29.05.93-2.74.12-4.18-2.88-4.15-5.79.06-11.58.23-17.36.05-1.34,0-3.49-1.09-3.73-2.07-.29-1.13,1-2.78,1.83-4,.74-1.08,2-1.8,2.74-2.91,3.38-5.36,1.75-10.71-.23-16-1.09-2.94-2.2-5.88-3-8.89a71.65,71.65,0,0,1-1.46-7.62c-.3-1.82-.38-3.69-.73-5.51-.16-.88-.52-2.27-1.11-2.46-4.43-1.45-4.66-1.32-5.62-5-3.33-13-7.76-25.69-7.63-39.4.09-9.78-.63-19.58-.9-29.37-.08-3,.81-6.14,0-8.88a34.73,34.73,0,0,1-.29-17.73c2.37-10,4.86-20.05,7.14-30.1a32.53,32.53,0,0,0,.46-6.85c0-.69-.59-1.38-.91-2.08a9.2,9.2,0,0,1,2.8.19c14.67,5.84,29.83,6.35,45.17,3.87,15.63-2.53,26.13-13.13,28.43-28.65,1.17-7.9,1.43-15.94,2.76-23.81a74.26,74.26,0,0,1,4.68-17.16c5.52-12.81,11.36-25.48,17.36-38.08,10-21,6-42.51-3.21-63.19-1.17-2.61-3.2-3.44-5.92-3.77-5.65-.67-11.19-1.06-16.69,1-1,.39-2.48-.4-3.73-.65a32.55,32.55,0,0,1,3.49-3.73c.42-.33,1.56.33,2.37.35,3.32.08,6.64.23,9.94,0,.92,0,2.39-1,2.53-1.73s-.78-2-1.48-2.82a3.91,3.91,0,0,0-2.11-1.26c-4.06-.75-1.51-4.67-3.2-6.57-.25-.28.27-1.25.43-1.91-.61.2-1.22.42-1.85.6l-6.42,1.84c1.11-2.24,2.17-4.51,3.39-6.69.38-.69,1.19-1.13,1.79-1.71,5.75-5.49,11.46-11,17.27-16.45,3.42-3.19,5.16-6.54,3.08-11.35-.89-2-.57-4.59-1-6.89-2.26-13.28-4.45-26.57-6.93-39.81-1.19-6.31-10.73-15.86-18.72-15.14-8.89.8-17.83,1.09-26.73,1.8-3.47.28-6.91,1.68-10.34,1.59-5.77-.14-9.51,3.08-12,7.25-2.14,3.55-3.87,7.26-6.23,10.81-5.36,8-9.4,17-13.66,25.73-5.46,11.22-10.71,22.54-15.85,33.91-1.78,3.93-1.13,4.57,3.19,4.67,4.95.13,9.95-.11,14.84.52,9,1.16,17.87,2.8,26.78,4.35a22.64,22.64,0,0,1,6.12,1.88c3.32,1.67,3.82,4.14,1.2,6.69a8.19,8.19,0,0,1-5.12,2.44,73.05,73.05,0,0,1-13.77-1.36c-9.7-2-19-6.3-29.18-5.35a22.21,22.21,0,0,0-9.11,3.17c-3.6,2.18-4.76,6.57-3.22,9.54,2.13,4.11,5.6,2.52,8.7,1.79,5.5-1.31,10.91-3.05,16.45-4.2,7.5-1.55,14.83-1.1,21.16,3.86,1.46,1.14,2.33,3,3.48,4.56-1.46.5-2.9,1.32-4.39,1.43-2.88.22-2.61,1.86-2.2,3.83.89,4.27-.6,7.9-4.32,9.2-1.75.61-3.91,0-5.88,0-5.83.19-5.9.17-6.87-5.6a29.62,29.62,0,0,1-.2-3,22.7,22.7,0,0,0,3.08,2.31c.36.19,1.17-.48,1.77-.75a15,15,0,0,0-2.6-2.67C227.87,128.46,226.79,129.47,226.06,129.93Zm107.2,146.92c-.48-1.49-1-3.24-1.63-4.94a5.26,5.26,0,0,0-1-1.31,8.09,8.09,0,0,1-.36,1.41c-.38.81.91,3.74-1.58,2-4.52-3.2-4.79.48-4.56,2.89a142.92,142.92,0,0,0,3,19.08c.94,4,2.95,7.73,4.75,11.46a3.34,3.34,0,0,0,2.94,1.34c2.46-.82,5.61-6.77,4.93-9.2a63.31,63.31,0,0,0-3.43-9.81C334.4,285.7,331.83,281.93,333.26,276.85ZM218.1,459.18l.4-.05a13.89,13.89,0,0,0-.2-1.48c-.27-1-.6-2.06-.9-3.08-.43.81-.84,1.63-1.3,2.41a4.84,4.84,0,0,1-.77.8c-.26-2.58-1.3-5.43-.55-7.67s1.79-2.36,1.1-3.73c-2-4-4.14-7.92-6.31-11.82-1.53-2.76-3.18-5.45-4.88-8.11-.3-.48-1.07-.65-1.63-1a4.78,4.78,0,0,0,0,1.36c1.38,4.7,2.73,9.41,4.2,14.08,1.35,4.26,2.79,8.5,4.24,12.73,2.34,6.87,4.69,13.74,7.17,20.55.14.39,1.82.7,2.28.36a2.41,2.41,0,0,0,.47-2.31c-.33-.71-1.92-1-2-1.62C218.81,466.85,218.5,463,218.1,459.18Zm193.13,139.5c.75,2,1.32,3.69,2,5.35,1.86,4.22,3.78,8.41,5.68,12.61.21.45.43.88.64,1.32a7.25,7.25,0,0,0,1-1.63c1.39-4.58,2.9-9.13,3.92-13.79.26-1.17-1.39-3.92-1.68-3.86-2.09.49-2.42-.84-3.57-2s-3.85-1.54-5.82-1.45C412.68,595.27,412,597.44,411.23,598.68Zm-167.09,8.65c0,1.5-.07,3,0,4.49a13.71,13.71,0,0,0,.55,2.3c.47-.6,1.18-1.13,1.37-1.8,1.6-5.91,3.38-11.78,4.52-17.77.6-3.15,0-6.53-.09-9.8,0-.55-.51-1.07-.78-1.61-.41.61-1.1,1.19-1.17,1.83-.25,2.23.64,5.38-.54,6.57C243.46,596.19,244.75,602,244.14,607.33Zm161.79-34.49c.15,4.91,7.81,14.31,11.53,15.14.51.11,1.52-.15,1.63-.47a3.15,3.15,0,0,0,0-2.32,60.62,60.62,0,0,0-5.16-8.44,21.57,21.57,0,0,0-5.57-4.42C407.82,572,406.62,572.67,405.93,572.84ZM324,91.73l-.44-1.82a5,5,0,0,0-1.76.57Q315.47,95.7,309.26,101a4.88,4.88,0,0,0-.73,1.08,4.75,4.75,0,0,0,1.36,0c2.48-.82,4.89-2.06,7.43-2.46C322.18,98.86,323.86,97.24,324,91.73ZM430.44,579.86c.32-4.67-3.54-6.65-5.92-9.49-.4-.47-1.48-.38-2.25-.55a15.29,15.29,0,0,0,.46,2.55c.94,2.62,2,5.2,3,7.81s1.82,5.07,2.73,7.61Q429.44,583.83,430.44,579.86ZM230.5,422.78c-.6-1.28-1.48-3.37-2.56-5.36-.33-.59-1.2-.88-1.83-1.32-.3.7-1,1.49-.84,2.07a66.63,66.63,0,0,0,2.65,8.44c.49,1.2,1.77,2.07,2.7,3.1a29.65,29.65,0,0,1-.71-3.57A17.07,17.07,0,0,1,230.5,422.78Zm11.69,152.45c-.64-.75-.8-1.07-1.06-1.22-5.85-3.34-11.71-6.67-17.59-9.94-.33-.19-.92.08-1.38.14.37.46.65,1.1,1.13,1.37q8.43,4.71,16.91,9.3A8.19,8.19,0,0,0,242.19,575.23ZM217,533.84c-.2.18-.58.45-.55.51a3,3,0,0,0,.81,1.2q6.33,3.86,12.73,7.62c.34.2.88.07,1.32.09-.25-.39-.41-.92-.77-1.15q-6.28-4-12.62-7.91A5.33,5.33,0,0,0,217,533.84Zm31.67,37.92c-2.07-.71-3.33-1-4.51-1.57-3.14-1.42-6.24-2.91-9.35-4.37,3.31,1.91,6.61,3.85,9.94,5.73a5.58,5.58,0,0,0,1.89.6A8.83,8.83,0,0,0,248.67,571.76Zm84.09,18.11-.45-2.19a27.14,27.14,0,0,0-1,3,20.32,20.32,0,0,0-.25,2.93c-.05.94-.06,1.88-.09,2.81a11.23,11.23,0,0,0,1.7-2.57C333,592.93,332.76,591.88,332.76,589.87ZM30.13,573.48a12.68,12.68,0,0,0-.15,3.07c.45,1.59,1.11,3.12,1.68,4.67.22-.36.62-.72.63-1.08A19.6,19.6,0,0,0,32.1,576C32,575.34,31.2,574.8,30.13,573.48Zm226.15,24.88-1.42-2c-.67,1.44-1.39,2.87-2,4.36-.08.21.6.72.93,1.1Zm-61-128.76c-.53-.71-.67-1.05-.93-1.22-2.19-1.49-4.41-2.95-6.62-4.42-.05.26-.23.68-.13.76,1.92,1.58,3.86,3.15,5.85,4.64C193.78,469.62,194.4,469.5,195.27,469.6Zm-10.47-.42c-2.07-1.72-4.21-3.52-6.38-5.27-.14-.11-.55.1-.83.17a5.36,5.36,0,0,0,.55.77c1.8,1.69,3.6,3.38,5.43,5a2.73,2.73,0,0,0,.91.34Zm87.29,29.43a13.64,13.64,0,0,0-3.29-1.41c-.39-.06-1.43,1.13-1.34,1.56a10.51,10.51,0,0,0,1.48,2.72ZM408.05,389l-1.24,1.06-1.07.89c1.24.93,2.48,1.87,3.76,2.75.05,0,.76-.65.71-.77C409.54,391.62,408.78,390.33,408.05,389ZM201.46,484.86c-1.91-1.42-3.19-2.37-4.5-3.27-.05,0-.45.45-.69.7,1.13.9,2.23,1.83,3.4,2.67C199.88,485.12,200.33,484.94,201.46,484.86Zm-15.27-93.51a8.89,8.89,0,0,0-.92,1.07,8.57,8.57,0,0,0,1.62,1.62c.18.13.7-.23,1.07-.36Zm-49.9,36.13-1.1.6c1.06.66,2.1,1.37,3.2,1.95.33.18.85,0,1.28,0ZM340.64,272l1.41,2.51c.07-.45.3-1,.17-1.34a23.87,23.87,0,0,0-1.18-2.51ZM119.07,596.6c-.21-.75-.4-1.43-.58-2.11-.08.79-.23,1.59-.23,2.38a13.47,13.47,0,0,0,.3,1.87Zm96.58-54.31a24.5,24.5,0,0,0-2.78-1.42c-.34-.11-.8.14-1.21.23a13.79,13.79,0,0,0,1.85,1.31C213.82,542.57,214.31,542.38,215.65,542.29Z"/><path class="cls-1" d="M254.46,607.4c5-7.5,5.48-15.82,3.41-24.16-1.77-7.16-4.54-14.08-6.87-21.1l-.12.12a10.49,10.49,0,0,0,2.87-9.29c-1.48-8.77-2.86-17.56-4.27-26.34a15,15,0,0,1-.06-1.9,6.39,6.39,0,0,1,2.14.66,35,35,0,0,1,4.38,4c1.82,2.07,3.05,1,4-.66.15-.24-1.09-1.35-1.74-2s-2-1.21-2.09-1.94c-1.59-10.09-5.45-20-2.93-30.46,1-4.17,2.75-5.1,7.17-4.6,2.27.26,2.07.35,2.15,2.69.14,3.76,2.18,7.46,3.43,11.17a13.81,13.81,0,0,1,1,2.8c.35,3.56,1,6.16,4.84,2.3a2.51,2.51,0,0,1,1.3-.44c1.86,3.93,8.49,3.7,8.24,9.67-.07,1.61,1.59,3.28,2.46,4.92.09-1.83.3-3.68.24-5.51s-.39-3.49-.6-5.24a26.09,26.09,0,0,0,4,3.56c6.52,3.81,10.3,10.76,16.37,14.74,5.32,3.48,9.85,7.32,12.88,12.72,1.7,3,2.34,6.64,3.62,9.92,1.55,3.95,3.75,7.7,4.81,11.75a48.82,48.82,0,0,1-.84,28.85c-1.34,3.87-1.51,8.16-2,12.29-.07.66,1,1.85,1.76,2.15,3.84,1.44,4.61,3.16,2.19,6.43-4.11,5.57-8.44,11-12.65,16.47A14.6,14.6,0,0,0,312.5,633a7.14,7.14,0,0,0,1.61-.9c9-8.84,17-18.29,19.85-31a23.19,23.19,0,0,1,2-6.13c3.1-5.6,2.66-11.72,2.62-17.68,0-6.41-.87-12.81-1.29-19.21-.11-1.71.29-3.54,2.43-1.77,3.44,2.86,6.59,6.06,9.88,9.1.42.39.88,1,1.37,1,5.81.75,10.25,3.1,12.81,8.87,1.85,4.15,4.85,7.78,6.85,11.88.56,1.13,3.66,5-1.84,4.33-.05.63-.34,1.35-.13,1.88,2.1,5.22,2.82,10.95,7,15.39,1.74,1.85,2.13,5.15,2.72,7.88,1.68,7.77,3.14,15.59,4.69,23.39h-132c-.51-2.34.38-5.71-3.91-5.22-.24-3.1-1.43-6.52-.53-9.24,2.08-6.26,5.18-12.18,7.87-18.24ZM355.08,573c.43-.57.95-1.06.87-1.2a15.79,15.79,0,0,0-1.41-1.87c-.41.39-1.22,1-1.15,1.14A12.89,12.89,0,0,0,355.08,573Z"/><path class="cls-1" d="M.07,598c3.27-1.2,6.13-3.6,10.14-2.55.9.23,3-1.76,3.59-3.14,2.09-4.56,4.43-8.73,9-11.31,1.19-.66,1.82-2.3,2.72-3.48.44-.58.9-1.14,1.35-1.71.32.73.94,1.47.91,2.18a25.73,25.73,0,0,1-.74,5.09c-.15.58-.95,1-1.45,1.49A22.09,22.09,0,0,0,28,585c8.38.56,9.69,2.48,7.09,10.59-.54,1.7-1.14,3,1.75,2.47.83-.14,2.33,1.39,2.87,2.47s.29,2.6.32,3.93c.08,3.55.23,7.1.16,10.64-.09,4.14.86,8.44-2.27,12.13-.65.77-.34,2.51-.2,3.78.35,3,.87,6,1.32,9-12.09,0-24.19-.09-36.28.07-2.37,0-2.81-.49-2.79-2.81C.14,624.17.07,611.09.07,598Z"/><path class="cls-1" d="M.07,582c3.23-.74,4.48.85,3.58,3.69-.81,2.56-2.36,4.88-3.58,7.31Z"/><path class="cls-1" d="M2.07,0l-2,10C.07,7,0,4,.16,1,.18.64,1.4.33,2.07,0Z"/><path class="cls-1" d="M225.93,129.77a29.62,29.62,0,0,0,.2,3c1,5.77,1,5.79,6.87,5.6,2-.06,4.13.58,5.88,0,3.72-1.3,5.21-4.93,4.32-9.2-.41-2-.68-3.61,2.2-3.83,1.49-.11,2.93-.93,4.39-1.43-1.15-1.54-2-3.42-3.48-4.56-6.33-5-13.66-5.41-21.16-3.86-5.54,1.15-11,2.89-16.45,4.2-3.1.73-6.57,2.32-8.7-1.79-1.54-3-.38-7.36,3.22-9.54a22.21,22.21,0,0,1,9.11-3.17c10.17-1,19.48,3.34,29.18,5.35a73.05,73.05,0,0,0,13.77,1.36,8.19,8.19,0,0,0,5.12-2.44c2.62-2.55,2.12-5-1.2-6.69a22.64,22.64,0,0,0-6.12-1.88c-8.91-1.55-17.82-3.19-26.78-4.35-4.89-.63-9.89-.39-14.84-.52-4.32-.1-5-.74-3.19-4.67,5.14-11.37,10.39-22.69,15.85-33.91,4.26-8.74,8.3-17.68,13.66-25.73,2.36-3.55,4.09-7.26,6.23-10.81,2.5-4.17,6.24-7.39,12-7.25,3.43.09,6.87-1.31,10.34-1.59,8.9-.71,17.84-1,26.73-1.8,8-.72,17.53,8.83,18.72,15.14,2.48,13.24,4.67,26.53,6.93,39.81.4,2.3.08,4.84,1,6.89,2.08,4.81.34,8.16-3.08,11.35-5.81,5.42-11.52,11-17.27,16.45-.6.58-1.41,1-1.79,1.71-1.22,2.18-2.28,4.45-3.39,6.69l6.42-1.84c.63-.18,1.24-.4,1.85-.6-.16.66-.68,1.63-.43,1.91,1.69,1.9-.86,5.82,3.2,6.57a3.91,3.91,0,0,1,2.11,1.26c.7.83,1.64,2,1.48,2.82s-1.61,1.68-2.53,1.73c-3.3.18-6.62,0-9.94,0-.81,0-1.95-.68-2.37-.35a32.55,32.55,0,0,0-3.49,3.73c1.25.25,2.71,1,3.73.65,5.5-2.06,11-1.67,16.69-1,2.72.33,4.75,1.16,5.92,3.77C326,147.54,330.07,169,320,190.05c-6,12.6-11.84,25.27-17.36,38.08A74.26,74.26,0,0,0,298,245.29c-1.33,7.87-1.59,15.91-2.76,23.81-2.3,15.52-12.8,26.12-28.43,28.65-15.34,2.48-30.5,2-45.17-3.87a9.2,9.2,0,0,0-2.8-.19c.32.7.91,1.39.91,2.08a32.53,32.53,0,0,1-.46,6.85c-2.28,10.05-4.77,20.06-7.14,30.1a34.73,34.73,0,0,0,.29,17.73c.77,2.74-.12,5.91,0,8.88.27,9.79,1,19.59.9,29.37-.13,13.71,4.3,26.43,7.63,39.4,1,3.73,1.19,3.6,5.62,5,.59.19,1,1.58,1.11,2.46.35,1.82.43,3.69.73,5.51a71.65,71.65,0,0,0,1.46,7.62c.84,3,1.95,5.95,3,8.89,2,5.33,3.61,10.68.23,16-.69,1.11-2,1.83-2.74,2.91-.85,1.25-2.12,2.9-1.83,4,.24,1,2.39,2,3.73,2.07,5.78.18,11.57,0,17.36-.05,3,0,3.81,1.41,2.88,4.15-3.26,9.6-2.45,19.32-.74,29.05.17,1,.51,1.94.66,2.92a11.19,11.19,0,0,1,0,1.92,5.85,5.85,0,0,1-2.07-.75c-5.28-5.06-10.84-9.88-15.62-15.38-4.06-4.68-7.2-10.17-10.73-15.31a8.24,8.24,0,0,1-1.45-2.59c-.42-1.79-.55-3.65-.8-5.48,1,1.23,2,2.49,3,3.68a8.51,8.51,0,0,0,1.33,1,4.3,4.3,0,0,0,.72-1.22,10.8,10.8,0,0,0,.41-3.44c-1.43-9.36-2.26-18.89-4.64-28-2.85-10.89-6.9-21.47-10.74-32.08-2.7-7.46-5.66-14.86-9-22.05-1.81-3.86-6.13-7-6.71-10.87-.75-5-3.83-7-7-9.5,2.24-1.79.89-3.48-.21-5.11-.14-.2-.75-.07-1.15-.1.32,1.41.63,2.82,1,4.23a6.38,6.38,0,0,0,.38.9c-3-4.25-5.92-8.62-9.15-12.72-2-2.59-4.83-4.6-6.83-7.21a121.74,121.74,0,0,1-6.73-10.32c-.28-.46,0-1.28,0-1.93l2,.62,1.66.53c-.16-.6-.15-1.37-.53-1.77-6.84-7.18-8.05-16.35-9.72-25.56-1.36-7.56-6.77-13.06-11.87-18.53-3.83-4.1-7.54-8.32-11.08-12.66-.68-.82-.17-2.52-.53-3.72-1.12-3.79-2.64-7.48-3.53-11.32-.52-2.23-1.09-5.68.07-6.77,1.58-1.49,5-2.14,7.26-1.58,4.41,1.11,8.54,3.35,12.82,5,9.55,3.77,19.13,7.44,28.67,11.24,2,.78,3.79,1.92,5.68,2.89,2.42.31,4.83.67,7.26.9a5.12,5.12,0,0,0,1.74-.54,6.31,6.31,0,0,0-1-1.49c-3-2.38-5.52-.69-8,1.18,1.12-2.46.9-3.73-2-5.33a220.28,220.28,0,0,1-22.13-14c-4.74-3.41-10.5-5.82-13.31-11.59-2.08-4.25-6.66-7.37-5.54-13a5.12,5.12,0,0,0-.78-2.84c-1.75-3.6-1.28-6.89.45-10.47,1.55-3.23,1.88-7,3.39-10.29,2-4.24,3.57-9.73,7.07-12,7.84-5,4.33-13.54,7.86-19.71,2.1-3.66,2.29-8.42,4.42-12.05,4.83-8.28,10.3-16.19,15.58-24.2,1-1.57,2.16-3.82,4.49-1.17a1.73,1.73,0,0,0,1.67-.09c4.28-3.85,9.2-4.74,14.76-3.76,1.69.3,3.55-.58,5.34-.65,4.53-.16,9.06-.16,13.6-.26.75,0,1.83,0,2.16-.43a2.24,2.24,0,0,0-.2-2.16,9.77,9.77,0,0,0-3.4-2.52c-1.69-.64-3.6-.64-5.34-1.15a24,24,0,0,1-3.63-1.72,24.6,24.6,0,0,1,3.78-3.66,24.08,24.08,0,0,1,6.5-3c1.14-.3,2.61.66,3.94,1.05Zm47.25,107.28c11.71-.21,16.55-2.1,21.24-8.21a15.14,15.14,0,0,0,1.51-3.56c-1.16-.4-2.32-1.15-3.48-1.13a43.62,43.62,0,0,0-7.38.72c-13.51,2.44-27,5-40.49,7.47-2.4.44-4.8.82-7.21,1.23a60,60,0,0,0,6.65,3.67c2.85,1.15,5.94,3.11,8.47-1,.44-.72,2.43-.74,3.67-.66C262.12,236,268.08,236.61,273.18,237.05Zm4.64,11.5.16-.46a6.9,6.9,0,0,0,1.95-.15c1.28-.5,2.49-1.17,3.73-1.76-1.26-.23-2.51-.53-3.78-.67a10.59,10.59,0,0,0-2.45.1c-2,.23-3.94.52-5.9.79Zm-18.28-59.49c-.3-.94-.69-2.15-1.09-3.36-.72,1-1.49,2-2.15,3a2.55,2.55,0,0,0-.39,1.41c.06,1.39.24,2.77.37,4.16,1-1.14,2.1-2.24,3.05-3.44C259.58,190.48,259.46,189.86,259.54,189.06Zm19.11,5.52-2.4,1.44a15.69,15.69,0,0,0,3.05,1c.66.08,1.4-.43,2.1-.67ZM184.14,368.29a10.3,10.3,0,0,0-.75,1,4.89,4.89,0,0,0,1.49,1.09c.26.11.72-.28,1.09-.45Zm45.49-226.8c-.87-.41-1.42-.9-1.86-.81s-.85.72-1.27,1.12a5.7,5.7,0,0,0,1.69,1.15C228.46,143,229,142.21,229.63,141.49Z"/><path class="cls-1" d="M333.26,276.85c-1.43,5.08,1.14,8.85,3.05,12.9a63.31,63.31,0,0,1,3.43,9.81c.68,2.43-2.47,8.38-4.93,9.2a3.34,3.34,0,0,1-2.94-1.34c-1.8-3.73-3.81-7.48-4.75-11.46a142.92,142.92,0,0,1-3-19.08c-.23-2.41,0-6.09,4.56-2.89,2.49,1.76,1.2-1.17,1.58-2a8.09,8.09,0,0,0,.36-1.41,5.26,5.26,0,0,1,1,1.31C332.26,273.61,332.78,275.36,333.26,276.85Z"/><path class="cls-1" d="M218.1,459.18c.4,3.83.71,7.67,1.29,11.46.09.62,1.68.91,2,1.62a2.41,2.41,0,0,1-.47,2.31c-.46.34-2.14,0-2.28-.36-2.48-6.81-4.83-13.68-7.17-20.55-1.45-4.23-2.89-8.47-4.24-12.73-1.47-4.67-2.82-9.38-4.2-14.08a4.78,4.78,0,0,1,0-1.36c.56.31,1.33.48,1.63,1,1.7,2.66,3.35,5.35,4.88,8.11,2.17,3.9,4.29,7.83,6.31,11.82.69,1.37-.29,1.35-1.1,3.73s.29,5.09.55,7.67a4.84,4.84,0,0,0,.77-.8c.46-.78.87-1.6,1.3-2.41.3,1,.63,2,.9,3.08a13.89,13.89,0,0,1,.2,1.48Z"/><path class="cls-1" d="M411.23,598.68c.76-1.24,1.45-3.41,2.24-3.44,2-.09,4.57.2,5.82,1.45s1.48,2.48,3.57,2c.29-.06,1.94,2.69,1.68,3.86-1,4.66-2.53,9.21-3.92,13.79a7.25,7.25,0,0,1-1,1.63c-.21-.44-.43-.87-.64-1.32-1.9-4.2-3.82-8.39-5.68-12.61C412.55,602.37,412,600.65,411.23,598.68Z"/><path class="cls-1" d="M251,562.14c-5.06-5-10.77-9.45-14.9-15.1-1.87-2.56-.62-7.42-.64-11.24,0-.1,2.31-.66,2.72-.23,2.55,2.73,6.17,5.36,7,8.63,1.56,6.17,2.62,12.4,5.71,18.06Z"/><path class="cls-1" d="M244.14,607.33c.61-5.38-.68-11.14,3.88-15.79,1.18-1.19.29-4.34.54-6.57.07-.64.76-1.22,1.17-1.83.27.54.76,1.06.78,1.61.13,3.27.69,6.65.09,9.8-1.14,6-2.92,11.86-4.52,17.77-.19.67-.9,1.2-1.37,1.8a13.71,13.71,0,0,1-.55-2.3C244.07,610.33,244.14,608.83,244.14,607.33Z"/><path class="cls-1" d="M405.93,572.84c.69-.17,1.89-.86,2.45-.51a21.57,21.57,0,0,1,5.57,4.42,60.62,60.62,0,0,1,5.16,8.44,3.15,3.15,0,0,1,0,2.32c-.11.32-1.12.58-1.63.47C413.74,587.15,406.08,577.75,405.93,572.84Z"/><path class="cls-1" d="M324,91.73c-.09,5.51-1.77,7.13-6.63,7.91-2.54.4-4.95,1.64-7.43,2.46a4.75,4.75,0,0,1-1.36,0,4.88,4.88,0,0,1,.73-1.08q6.21-5.33,12.49-10.56a5,5,0,0,1,1.76-.57Z"/><path class="cls-1" d="M430.44,579.86q-1,4-2,7.93c-.91-2.54-1.79-5.08-2.73-7.61s-2-5.19-3-7.81a15.29,15.29,0,0,1-.46-2.55c.77.17,1.85.08,2.25.55C426.9,573.21,430.76,575.19,430.44,579.86Z"/><path class="cls-1" d="M230.5,422.78a17.07,17.07,0,0,0-.59,3.36,29.65,29.65,0,0,0,.71,3.57c-.93-1-2.21-1.9-2.7-3.1a66.63,66.63,0,0,1-2.65-8.44c-.15-.58.54-1.37.84-2.07.63.44,1.5.73,1.83,1.32C229,419.41,229.9,421.5,230.5,422.78Z"/><path class="cls-1" d="M242.19,575.23a8.19,8.19,0,0,1-2-.35q-8.47-4.61-16.91-9.3c-.48-.27-.76-.91-1.13-1.37.46-.06,1.05-.33,1.38-.14,5.88,3.27,11.74,6.6,17.59,9.94C241.39,574.16,241.55,574.48,242.19,575.23Z"/><path class="cls-1" d="M217,533.84a5.33,5.33,0,0,1,.92.36q6.33,3.93,12.62,7.91c.36.23.52.76.77,1.15-.44,0-1,.11-1.32-.09q-6.41-3.76-12.73-7.62a3,3,0,0,1-.81-1.2C216.42,534.29,216.8,534,217,533.84Z"/><path class="cls-1" d="M425.34,449.65c-1.15-3.13-2.31-6.26-3.43-9.4-.09-.25.09-.6.14-.9.38.16.9.23,1.11.51,2.2,3,4,6.05,2.07,9.91Z"/><path class="cls-1" d="M248.67,571.76a8.83,8.83,0,0,1-2,.39,5.58,5.58,0,0,1-1.89-.6c-3.33-1.88-6.63-3.82-9.94-5.73,3.11,1.46,6.21,2.95,9.35,4.37C245.34,570.71,246.6,571.05,248.67,571.76Z"/><path class="cls-1" d="M332.76,589.87c0,2,.22,3.06-.07,4a11.23,11.23,0,0,1-1.7,2.57c0-.93,0-1.87.09-2.81a20.32,20.32,0,0,1,.25-2.93,27.14,27.14,0,0,1,1-3Z"/><path class="cls-1" d="M30.13,573.48c1.07,1.32,1.85,1.86,2,2.53a19.6,19.6,0,0,1,.19,4.13c0,.36-.41.72-.63,1.08-.57-1.55-1.23-3.08-1.68-4.67A12.68,12.68,0,0,1,30.13,573.48Z"/><path class="cls-1" d="M256.28,598.36l-2.44,3.49c-.33-.38-1-.89-.93-1.1.56-1.49,1.28-2.92,2-4.36Z"/><path class="cls-1" d="M195.27,469.6c-.87-.1-1.49,0-1.83-.24-2-1.49-3.93-3.06-5.85-4.64-.1-.08.08-.5.13-.76,2.21,1.47,4.43,2.93,6.62,4.42C194.6,468.55,194.74,468.89,195.27,469.6Z"/><path class="cls-1" d="M184.8,469.18l-.32,1.05a2.73,2.73,0,0,1-.91-.34c-1.83-1.66-3.63-3.35-5.43-5a5.36,5.36,0,0,1-.55-.77c.28-.07.69-.28.83-.17C180.59,465.66,182.73,467.46,184.8,469.18Z"/><path class="cls-1" d="M272.09,498.61l-3.15,2.87a10.51,10.51,0,0,1-1.48-2.72c-.09-.43,1-1.62,1.34-1.56A13.64,13.64,0,0,1,272.09,498.61Z"/><path d="M189.17,378.62a6.38,6.38,0,0,1-.38-.9c-.34-1.41-.65-2.82-1-4.23.4,0,1-.1,1.15.1,1.1,1.63,2.45,3.32.21,5.11Z"/><path class="cls-1" d="M226.06,129.93c.73-.46,1.81-1.47,2.12-1.27a15,15,0,0,1,2.6,2.67c-.6.27-1.41.94-1.77.75a22.7,22.7,0,0,1-3.08-2.31Z"/><path class="cls-1" d="M254.5,607.3l-1,1.11-2.79,3.18a30.44,30.44,0,0,1,0-3.17c.39-3.33,2.45-.75,3.72-1Z"/><path class="cls-1" d="M425.23,449.77l2.38,5-1.25.34-1-5.42Z"/><path class="cls-1" d="M408.05,389c.73,1.3,1.49,2.59,2.16,3.93.05.12-.66.8-.71.77-1.28-.88-2.52-1.82-3.76-2.75l1.07-.89Z"/><path class="cls-1" d="M201.46,484.86c-1.13.08-1.58.26-1.79.1-1.17-.84-2.27-1.77-3.4-2.67.24-.25.64-.73.69-.7C198.27,482.49,199.55,483.44,201.46,484.86Z"/><path class="cls-1" d="M186.19,391.35l1.77,2.33c-.37.13-.89.49-1.07.36a8.57,8.57,0,0,1-1.62-1.62A8.89,8.89,0,0,1,186.19,391.35Z"/><path class="cls-1" d="M136.29,427.48l3.38,2.54c-.43,0-.95.19-1.28,0-1.1-.58-2.14-1.29-3.2-1.95Z"/><path class="cls-1" d="M340.64,272l.4-1.34a23.87,23.87,0,0,1,1.18,2.51c.13.38-.1.89-.17,1.34Z"/><path class="cls-1" d="M119.07,596.6l-.51,2.14a13.47,13.47,0,0,1-.3-1.87c0-.79.15-1.59.23-2.38C118.67,595.17,118.86,595.85,119.07,596.6Z"/><path class="cls-1" d="M215.65,542.29c-1.34.09-1.83.28-2.14.12a13.79,13.79,0,0,1-1.85-1.31c.41-.09.87-.34,1.21-.23A24.5,24.5,0,0,1,215.65,542.29Z"/><path d="M446,544.64a7.51,7.51,0,0,1,0,1.5c-.29,1.37-.66,2.72-1,4.09-.05-1.28-.09-2.56-.14-3.84a16.82,16.82,0,0,1-.11-2c.12-1.65.32-3.29.48-4.93q.53,2.56,1,5.12Z"/><path d="M446,533.33l-1.25,1.51a9.88,9.88,0,0,1-1.66-2.35c-.16-.48.5-1.23.79-1.85Z"/><path d="M421.16,519.93c-.62-.8-1.29-1.29-1.24-1.71A2.1,2.1,0,0,1,421,516.7c.34-.14,1.5.65,1.46.8A14,14,0,0,1,421.16,519.93Z"/><path d="M355.08,573a12.89,12.89,0,0,1-1.69-1.93c-.07-.11.74-.75,1.15-1.14a15.79,15.79,0,0,1,1.41,1.87C356,572,355.51,572.47,355.08,573Z"/><path d="M273.18,237.05c-5.1-.44-11.06-1-17-1.43-1.24-.08-3.23-.06-3.67.66-2.53,4.07-5.62,2.11-8.47,1a60,60,0,0,1-6.65-3.67c2.41-.41,4.81-.79,7.21-1.23,13.49-2.49,27-5,40.49-7.47a43.62,43.62,0,0,1,7.38-.72c1.16,0,2.32.73,3.48,1.13a15.14,15.14,0,0,1-1.51,3.56C289.73,235,284.89,236.84,273.18,237.05Z"/><path d="M277.82,248.55l-6.29-2.15c2-.27,3.93-.56,5.9-.79a10.59,10.59,0,0,1,2.45-.1c1.27.14,2.52.44,3.78.67-1.24.59-2.45,1.26-3.73,1.76a6.9,6.9,0,0,1-1.95.15Z"/><path d="M259.54,189.06c-.08.8,0,1.42-.21,1.75-.95,1.2-2,2.3-3.05,3.44-.13-1.39-.31-2.77-.37-4.16a2.55,2.55,0,0,1,.39-1.41c.66-1,1.43-2,2.15-3C258.85,186.91,259.24,188.12,259.54,189.06Z"/><path d="M187.38,284.89c2.44-1.87,4.92-3.56,8-1.18a6.31,6.31,0,0,1,1,1.49,5.12,5.12,0,0,1-1.74.54c-2.43-.23-4.84-.59-7.26-.9Z"/><path d="M278.65,194.58l2.75,1.81c-.7.24-1.44.75-2.1.67a15.69,15.69,0,0,1-3.05-1Z"/><path d="M184.14,368.29,186,370c-.37.17-.83.56-1.09.45a4.89,4.89,0,0,1-1.49-1.09A10.3,10.3,0,0,1,184.14,368.29Z"/><path d="M229.63,141.49c-.68.72-1.17,1.53-1.44,1.46a5.7,5.7,0,0,1-1.69-1.15c.42-.4.79-1,1.27-1.12S228.76,141.08,229.63,141.49Z"/><path class="cls-2" d="M300.57,109.5l5.5-2"/><path class="cls-2" d="M299.07,104l-5.5,4"/><path class="cls-2" d="M186.57,281.5l-17-7.5"/><path class="cls-2" d="M259.07,233.25c-7.5.35-15,3.11-22.5.25"/><path class="cls-2" d="M225.57,486.5c.17-.83.76-1.94.43-2.46-2.66-4.21-1.92-9-2.57-13.52-1.16-8.07-3.14-16-4.9-24a43.06,43.06,0,0,0-2-5.51"/><path class="cls-2" d="M253.82,593q-1.38,5.75-2.75,11.5"/><path class="cls-2" d="M333.07,581.5c4.67,4.85,1.69,10,.43,15-.37,1.45-1.6,2.69-2.43,4"/><path class="cls-2" d="M329.57,607c-.67,2.33-.83,5-2.09,6.94-4.59,7.07-8.62,14.67-15.91,19.56"/><path class="cls-2" d="M257.07,484.5c-6.1,6.27-6.72,13.95-5.46,22,.77,4.87,2.06,9.66,2.87,14.53.14.89-.91,2-1.41,3"/><path class="cls-2" d="M427.57,460c4.49-4.42,2.1-9.62,1.39-14.48-.36-2.43-1.89-4.69-2.89-7"/><path class="cls-2" d="M328.82,587l-.75,5.5"/><path class="cls-2" d="M251.07,556c.33,1.83.67,3.67,1,5.5"/><path class="cls-2" d="M267.57,511.5c2-2,1.15-5.86,4.5-7"/><path class="cls-2" d="M280.57,510q2,6.75,4,13.5"/><path class="cls-2" d="M428.07,467c3.46.58,5,1.9,4.19,6-.73,3.65.14,7.63.31,11.46"/><path class="cls-2" d="M421.57,566.5c2.17,2,4.24,4.11,6.53,6a58.76,58.76,0,0,0,5.47,3.54"/><path class="cls-2" d="M231.07,565c3.17,2.17,6.41,4.23,9.47,6.53,2.46,1.84,4.7,4,7,6"/><path class="cls-2" d="M368.57,595.5l4,.5"/><path class="cls-2" d="M226.57,436.5l3.5,2"/><path class="cls-2" d="M170.57,348.5c-1.9-2-2.74-5.4-6.5-5"/><path class="cls-2" d="M311.57,120c-3.5.5-7,.92-10.5,1.52-3.18.56-6.33,1.31-9.5,2"/><path class="cls-2" d="M258.57,531.5c-2.29-4.61-5.3-8.45-10.5-10"/><path class="cls-2" d="M256.07,592.5c.33,1.67,1.46,3.72.86,4.93-2.72,5.55-.83,13.38-8.31,16.69-1.53.68-2.38,2.88-3.55,4.38"/><path class="cls-2" d="M445.07,538.5q-.26,6.5-.5,13"/><path class="cls-2" d="M27.07,570.5q1.24,6.25,2.5,12.5"/><path class="cls-2" d="M225.07,122.5c-.62,4.79,1,8.88,4,12.5"/><path class="cls-2" d="M268.07,491.5q-5.56,6.12,1,13"/><path class="cls-2" d="M426.07,500c3.5,4.33,7.12,8.57,10.43,13,1.11,1.51,1.4,3.62,2.07,5.45"/><path class="cls-2" d="M219.07,451.5c-5.62.72-2.78,5.14-3.5,8"/><path class="cls-2" d="M197.57,285.5l-9.5-1.5"/><path class="cls-2" d="M284.57,245.5a18.93,18.93,0,0,1-13.5.5"/><path class="cls-2" d="M400.57,391c6.34-3.87,6.89-3.85,10.42,1.55.54.81.08,2.28.08,3.45"/><path class="cls-2" d="M261.07,483.5c-.17,2.33-.33,4.67-.5,7"/><path class="cls-2" d="M434.57,458.5l-1.5,8"/><path class="cls-2" d="M217.57,293.5c4.14-.14,4.37,4,6.5,6"/><path class="cls-2" d="M338.57,560h-7"/><path class="cls-2" d="M37.07,582c-3.74,1.45-10.21,2.23-12.5,1.5"/><path class="cls-2" d="M423.57,445l-6,1"/><path class="cls-2" d="M188.07,373c1.43,2.33,2.13,4.67,0,7"/><path class="cls-2" d="M420.57,506.5c.33,1.33.67,2.67,1,4"/><path class="cls-2" d="M282.57,196.5l-7-.5"/><path class="cls-2" d="M244.57,133.5l-7-2.5"/><path class="cls-2" d="M419.57,409l3,6.5"/><path class="cls-2" d="M444.57,624.5l-6-.5"/><path class="cls-2" d="M443.57,529.5c.33,2,.67,4,1,6"/><path class="cls-2" d="M258.57,184.5q-1,5.5-2,11"/><path class="cls-2" d="M367.57,591.5l4.5,2.5"/><path class="cls-2" d="M253.07,605c-1,.17-2.72.08-2.88.54-.92,2.58-1.45,5.29-2.12,8"/><path class="cls-2" d="M246.57,554.5l4,.5"/><path class="cls-2" d="M261.57,492.5l4,1"/><path class="cls-2" d="M182.57,368.5l4,1.5"/><path class="cls-2" d="M214.57,448.5c.17,1.33.33,2.67.5,4"/><path class="cls-2" d="M256.07,488c.17,1.17.33,2.33.5,3.5"/><path class="cls-2" d="M430.57,447.5l3,2"/><path class="cls-2" d="M347.07,300l3.5-.25"/><path class="cls-2" d="M427.07,473.5c.17,2,.33,4,.5,6"/><path class="cls-2" d="M428.57,449.5l-3.5.5"/><path class="cls-2" d="M333.57,578l3-.25"/><path class="cls-2" d="M354.57,569.5c-1.17,2.23.62,2.48,2,3"/><path class="cls-2" d="M423.57,517.5l-3.5-.5"/></g></g></svg>
